<?xml version="1.0"?>
<svg id="Livello_2" data-name="Livello 2" xmlns="http://www.w3.org/2000/svg" xmlns:xlink="http://www.w3.org/1999/xlink" viewBox="0 0 267.41 267.42">
  <defs>
    
    <clipPath id="clippath">
      <rect class="cls-1" width="267.41" height="267.42"></rect>
    </clipPath>
    <clipPath id="clippath-1">
      <rect class="cls-1" width="267.41" height="267.42"></rect>
    </clipPath>
  </defs>
  <g id="sfondo">
    <g id="Disegno_1" data-name="Disegno 1">
      <g class="cls-18">
        <polygon class="cls-9" points="0 30.04 0 42.05 50.92 41.66 20.5 4.19 0 30.04"></polygon>
        <polygon class="cls-9" points="0 163.48 0 175.75 50.92 175.36 20.5 137.89 0 163.48"></polygon>
        <g class="cls-6">
          <path class="cls-15" d="M0,119.61v-30.81c24.55-2.39,24.73,33.12,0,30.81"></path>
          <path class="cls-15" d="M0,253.31v-30.81c24.48-2.37,24.79,33.1,0,30.81"></path>
          <path class="cls-9" d="M250.96,54.59l16.45,11.75v12.27l-17.24,13.97.26-38.13c.1-.33.37.23.52.13"></path>
          <polygon class="cls-4" points="267.41 200.04 267.41 212.31 250.17 226.29 250.7 188.03 267.41 200.04"></polygon>
          <path class="cls-15" d="M267.41,222.5v30.81c-17.36-3.11-17.59-27.83,0-30.81"></path>
          <path class="cls-15" d="M267.41,88.8v30.81c-17.34-3.12-17.58-27.82,0-30.81"></path>
          <path class="cls-7" d="M193.51,267.42h-22.46c-.97-16.78,23.58-16.65,22.46,0"></path>
          <path class="cls-17" d="M59.8,267.42h-22.46c-.94-16.79,23.51-16.67,22.46,0"></path>
          <path class="cls-17" d="M59.8,0C57.62,12.89,39.72,12.71,37.34,0h22.46Z"></path>
          <path class="cls-13" d="M193.51,0c-2.19,12.88-20.07,12.69-22.46,0h22.46Z"></path>
          <path class="cls-9" d="M0,143.37v-15.15c13.93-2.61,13.77,18.06,0,15.15"></path>
          <path class="cls-4" d="M143.89,0c2.48,13.31-17.97,13.23-15.41,0h15.41Z"></path>
          <polygon class="cls-16" points="267.41 187.77 267.41 200.04 250.7 188.03 267.41 187.77"></polygon>
          <path class="cls-14" d="M267.41,54.06v12.27l-16.45-11.75s-.1-.47.13-.52h16.32Z"></path>
          <path class="cls-16" d="M10.18,0C11.9,6.2,6.09,11.52,0,9.67V0h10.18Z"></path>
          <path class="cls-9" d="M267.41,128.49v14.89c-7.33-2.35-7.4-12.69,0-14.89"></path>
          <polygon class="cls-12" points="267.41 42.05 258.53 41.66 267.41 30.3 267.41 42.05"></polygon>
          <polygon class="cls-16" points="267.41 175.76 258.53 175.36 267.41 164 267.41 175.76"></polygon>
          <path class="cls-4" d="M7.57,205.79l-7.57-5.48v-12.53l22.98.39-.26,4.44c-5.16,4.26-10.08,8.81-15.15,13.19"></path>
          <path class="cls-4" d="M7.57,205.79c-2.47,2.14-4.94,4.32-7.57,6.27v-11.75l7.57,5.48Z"></path>
          <path class="cls-5" d="M7.57,72.08l-7.57-5.48v-12.53l22.98.39-.26,4.44c-5.16,4.26-10.09,8.81-15.15,13.19"></path>
          <path class="cls-5" d="M7.57,72.08c-2.47,2.14-4.94,4.32-7.57,6.27v-11.75l7.57,5.48Z"></path>
          <path class="cls-16" d="M10.18,267.42H0v-5.48c4.42-1.14,8.89,1.03,10.18,5.48"></path>
          <path class="cls-16" d="M262.19,0h5.22v9.66c-4.01-1.28-6.52-5.47-5.22-9.66"></path>
          <path class="cls-16" d="M267.41,262.19v5.22h-5.22c.72-2.43,2.69-4.69,5.22-5.22"></path>
          <path class="cls-3" d="M215.18,0h38.13l-.13,12.01h-49.09c-.72-.4,6.44-10.94,7.31-11.75l3.26-.26h.52Z"></path>
          <path class="cls-3" d="M81.21,0h31.08c.09,0,.17,0,.26,0,.94.04,7.14.26,7.31.65l-.39,11.36h-49.09c-.71-.39,6.45-10.94,7.31-11.75,1.04.19,2.01-.15,3-.26.17-.02.35,0,.52,0"></path>
          <polygon class="cls-11" points="105.24 154.65 209.7 154.91 105.76 260.89 105.24 154.65"></polygon>
          <polygon class="cls-15" points="23.63 208.14 75.99 208.27 23.63 260.89 23.63 208.14"></polygon>
          <polygon class="cls-11" points="157.34 74.43 209.96 74.82 157.34 127.18 157.34 74.43"></polygon>
          <polygon class="cls-15" points="153.94 4.19 184.23 42.05 124.83 41.66 153.94 4.19"></polygon>
          <polygon class="cls-15" points="170.33 97.94 233.69 177.84 108.35 177.01 170.33 97.94"></polygon>
          <polygon class="cls-15" points="236.99 229.55 253.57 247.96 253.57 265.98 212.44 266.11 236.99 229.55"></polygon>
          <polygon class="cls-9" points="103.28 229.55 119.86 247.7 119.86 265.98 78.73 266.11 103.28 229.55"></polygon>
          <path class="cls-11" d="M99.76,192.73l-39.69-29.25c18.81-29.66,62.8,3.03,39.69,29.25"></path>
          <path class="cls-11" d="M99.76,192.73c-19.67,22.32-56.27-3.11-39.69-29.25l39.69,29.25Z"></path>
          <path class="cls-16" d="M233.46,192.73l-39.69-29.25c18.61-29.62,62.88,2.94,39.69,29.25"></path>
          <path class="cls-16" d="M233.46,192.73c-19.6,22.23-56.24-2.91-39.69-29.25l39.69,29.25Z"></path>
          <path class="cls-15" d="M99.76,59.03l-39.69-29.25c18.73-29.57,62.86,2.97,39.69,29.25"></path>
          <path class="cls-15" d="M99.76,59.03c-19.65,22.29-56.27-3.07-39.69-29.25l39.69,29.25Z"></path>
          <path class="cls-9" d="M253.56,67l-61.09-45.01c28.76-45.51,96.76,4.56,61.09,45.01"></path>
          <path class="cls-16" d="M253.56,67c-30.22,34.28-86.59-4.66-61.09-45.01l61.09,45.01Z"></path>
          <path class="cls-4" d="M143.89,267.42h-15.41c2.54-7.47,13-7.79,15.41,0"></path>
          <path class="cls-3" d="M134.36,222.24c19.51-1.95,24.77,25.3,7.05,30.55-22.97,6.81-28.87-28.37-7.05-30.55"></path>
          <path class="cls-5" d="M116.99,54.32l24.29,17.76c-8.01,7.02-16.26,13.78-24.42,20.63l.13-38.39Z"></path>
          <path class="cls-5" d="M141.28,72.08l-24.29-17.76,39.3-.26.13,4.83c-5.12,4.32-10.11,8.78-15.15,13.19"></path>
          <path class="cls-7" d="M116.99,188.03l24.29,17.5c-8.05,7.07-16.06,14.18-24.42,20.89l.13-38.39Z"></path>
          <path class="cls-7" d="M141.28,205.53l-24.29-17.5,39.3-.26c.63.28.35,4.33.13,4.83-.39.91-13.25,11.27-15.15,12.93"></path>
          <polygon class="cls-5" points="233.85 200.56 245.99 213.23 233.59 225.37 221.45 212.97 233.85 200.56"></polygon>
          <polygon class="cls-7" points="100.15 66.86 112.29 79.52 99.89 91.67 87.74 79.26 100.15 66.86"></polygon>
          <polygon class="cls-2" points="233.85 66.86 245.99 79.52 233.59 91.67 221.45 79.26 233.85 66.86"></polygon>
          <polygon class="cls-4" points="100.15 200.56 112.29 213.23 99.89 225.37 87.74 212.97 100.15 200.56"></polygon>
          <path class="cls-3" d="M176.92,184.9c13.17-1.03,14.52,18.15,2.61,19.59-14.12,1.7-15.26-18.59-2.61-19.59"></path>
          <path class="cls-3" d="M43.48,184.9c12.99-.8,14.24,18.36,2.09,19.59-14.03,1.41-14.91-18.8-2.09-19.59"></path>
          <path class="cls-3" d="M177.18,51.19c12.95-.83,14.27,18.36,2.09,19.59-14,1.41-14.94-18.76-2.09-19.59"></path>
          <path class="cls-3" d="M43.74,51.19c12.84-.51,13.82,18.38,1.83,19.59-14.14,1.42-14.91-19.07-1.83-19.59"></path>
          <path class="cls-3" d="M134.36,88.53c21.87-2.19,24.09,29.85,3.39,31.34-20.94,1.51-23.21-29.35-3.39-31.34"></path>
          <path class="cls-10" d="M134.62,127.97c12.59-1.87,12.67,18.04-.52,15.67-7.85-1.41-7.73-14.44.52-15.67"></path>
          <polygon class="cls-13" points="23.63 74.43 76.25 74.82 23.63 127.18 23.63 74.43"></polygon>
          <path class="cls-2" d="M67.77,102.11c.88-.22,16.81-.54,17.37.13l-16.58,22.59-14.49-10.58c2.48-1.57,11.84-11.67,13.71-12.14"></path>
          <path class="cls-13" d="M75.6,85.4c5.57-.81,8.29,6.71,3.66,9.4-7.4,4.31-10.81-8.35-3.66-9.4"></path>
          <path class="cls-15" d="M194.88,74.7c1.41-.36,26.98-.86,27.87.21l-26.61,36.25-23.26-16.97c4.04-2.49,18.98-18.72,22-19.49"></path>
          <path class="cls-15" d="M234.62,12.19c15.06-2.2,22.41,18.13,9.88,25.41-19.92,11.59-29.29-22.57-9.88-25.41"></path>
          <path class="cls-7" d="M201.47,235.82c.86-.22,16.83-.55,17.37.13l-16.58,22.59-14.49-10.32c2.07-1.75,12.09-11.99,13.71-12.4"></path>
          <path class="cls-7" d="M209.3,219.1c5.52-.86,8.31,6.69,3.66,9.4-7.37,4.29-10.83-8.29-3.66-9.4"></path>
          <path class="cls-5" d="M67.77,235.82c.86-.22,16.83-.55,17.37.13l-16.58,22.59-14.49-10.32c2.06-1.77,12.06-11.99,13.71-12.4"></path>
          <path class="cls-5" d="M75.6,219.1c5.52-.86,8.31,6.69,3.66,9.4-7.37,4.29-10.83-8.29-3.66-9.4"></path>
          <path class="cls-8" d="M115.82,156.69c8.16-1.46,8.14,10.91.26,9.66-4.87-.77-5.09-8.8-.26-9.66"></path>
          <path class="cls-16" d="M115.82,22.99c8.18-1.46,8.09,10.9.26,9.66-4.87-.77-5.09-8.8-.26-9.66"></path>
          <path class="cls-8" d="M249.52,22.99c8.18-1.46,8.1,10.8.26,9.66-4.91-.71-5.04-8.81-.26-9.66"></path>
          <path class="cls-17" d="M249.52,156.69c8.15-1.46,8.11,10.8.26,9.66-4.91-.71-5.04-8.81-.26-9.66"></path>
          <path class="cls-8" d="M180.06,121.18c18.52-2.63,17.07,25.91-.52,21.94-11.72-2.64-10.69-20.34.52-21.94"></path>
          <path class="cls-8" d="M184.5,150.42c6.58-1.44,7.39,7.99,2.09,8.62-5.59.66-6.59-7.63-2.09-8.62"></path>
          <path class="cls-4" d="M46.35,121.18c17.71-2.52,17.57,24.14.78,22.2-12.71-1.47-12.69-20.51-.78-22.2"></path>
          <path class="cls-4" d="M50.79,150.42c6.1-1.31,7.47,7.04,2.87,8.36-6.19,1.77-7.64-7.33-2.87-8.36"></path>
          <path class="cls-9" d="M184.5,16.72c7.65-1.65,7.33,10.86-.52,8.1-3.39-1.19-2.93-7.35.52-8.1"></path>
          <path class="cls-2" d="M50.79,16.72c7.65-1.65,7.33,10.86-.52,8.1-3.39-1.19-2.93-7.35.52-8.1"></path>
          <polygon class="cls-15" points="65.45 144.86 98.35 94.99 114.94 113.13 114.94 144.47 65.45 144.86"></polygon>
          <polygon class="cls-4" points="229.72 97 199.22 148.93 248.7 148.54 248.44 117.2 229.72 97"></polygon>
        </g>
      </g>
    </g>
  </g>
</svg>